<svg width="201" height="28" viewBox="0 0 201 28" fill="none" xmlns="http://www.w3.org/2000/svg">
<path d="M25 0L28.3677 10.3647H39.2658L30.4491 16.7705L33.8168 27.1353L25 20.7295L16.1832 27.1353L19.5509 16.7705L10.7342 10.3647H21.6323L25 0Z" fill="#FFA333"/>
<path d="M63 0L66.3677 10.3647H77.2658L68.4491 16.7705L71.8168 27.1353L63 20.7295L54.1832 27.1353L57.5509 16.7705L48.7342 10.3647H59.6323L63 0Z" fill="#FFA333"/>
<path d="M101 0L104.368 10.3647H115.266L106.449 16.7705L109.817 27.1353L101 20.7295L92.1832 27.1353L95.5509 16.7705L86.7342 10.3647H97.6323L101 0Z" fill="#FFA333"/>
<path d="M139 0L142.368 10.3647H153.266L144.449 16.7705L147.817 27.1353L139 20.7295L130.183 27.1353L133.551 16.7705L124.734 10.3647H135.632L139 0Z" fill="#FFA333"/>
<path d="M177 0L180.368 10.3647H191.266L182.449 16.7705L185.817 27.1353L177 20.7295L168.183 27.1353L171.551 16.7705L162.734 10.3647H173.632L177 0Z" fill="#FFA333"/>
</svg>
