<svg width="48" height="49" viewBox="0 0 48 49" fill="none" xmlns="http://www.w3.org/2000/svg">
<path d="M13.92 0.551025H34.08C41.76 0.551025 48 6.79103 48 14.471V34.631C48 38.3228 46.5334 41.8634 43.9229 44.474C41.3124 47.0845 37.7718 48.551 34.08 48.551H13.92C6.24 48.551 0 42.311 0 34.631V14.471C0 10.7792 1.46657 7.23861 4.07707 4.6281C6.68758 2.01759 10.2282 0.551025 13.92 0.551025ZM13.44 5.35103C11.1485 5.35103 8.95091 6.26131 7.3306 7.88162C5.71028 9.50194 4.8 11.6996 4.8 13.991V35.111C4.8 39.887 8.664 43.751 13.44 43.751H34.56C36.8515 43.751 39.0491 42.8407 40.6694 41.2204C42.2897 39.6001 43.2 37.4025 43.2 35.111V13.991C43.2 9.21503 39.336 5.35103 34.56 5.35103H13.44ZM36.6 8.95103C37.3957 8.95103 38.1587 9.2671 38.7213 9.82971C39.2839 10.3923 39.6 11.1554 39.6 11.951C39.6 12.7467 39.2839 13.5097 38.7213 14.0723C38.1587 14.635 37.3957 14.951 36.6 14.951C35.8044 14.951 35.0413 14.635 34.4787 14.0723C33.9161 13.5097 33.6 12.7467 33.6 11.951C33.6 11.1554 33.9161 10.3923 34.4787 9.82971C35.0413 9.2671 35.8044 8.95103 36.6 8.95103ZM24 12.551C27.1826 12.551 30.2348 13.8153 32.4853 16.0657C34.7357 18.3162 36 21.3684 36 24.551C36 27.7336 34.7357 30.7859 32.4853 33.0363C30.2348 35.2867 27.1826 36.551 24 36.551C20.8174 36.551 17.7652 35.2867 15.5147 33.0363C13.2643 30.7859 12 27.7336 12 24.551C12 21.3684 13.2643 18.3162 15.5147 16.0657C17.7652 13.8153 20.8174 12.551 24 12.551ZM24 17.351C22.0904 17.351 20.2591 18.1096 18.9088 19.4599C17.5586 20.8101 16.8 22.6415 16.8 24.551C16.8 26.4606 17.5586 28.2919 18.9088 29.6422C20.2591 30.9925 22.0904 31.751 24 31.751C25.9096 31.751 27.7409 30.9925 29.0912 29.6422C30.4414 28.2919 31.2 26.4606 31.2 24.551C31.2 22.6415 30.4414 20.8101 29.0912 19.4599C27.7409 18.1096 25.9096 17.351 24 17.351Z" fill="#D37400"/>
</svg>
