<svg width="48" height="56" viewBox="0 0 48 56" fill="none" xmlns="http://www.w3.org/2000/svg">
<path d="M38.0816 8.63265C35.9895 6.24345 34.8364 3.17571 34.8367 0H25.3776V37.9592C25.3061 40.0139 24.4393 41.9604 22.9601 43.3883C21.4809 44.8161 19.5049 45.6135 17.449 45.6122C13.102 45.6122 9.4898 42.0612 9.4898 37.6531C9.4898 32.3878 14.5714 28.4388 19.8061 30.0612V20.3878C9.2449 18.9796 0 27.1837 0 37.6531C0 47.8469 8.44898 55.102 17.4184 55.102C27.0306 55.102 34.8367 47.2959 34.8367 37.6531V18.398C38.6724 21.1526 43.2776 22.6306 48 22.6224V13.1633C48 13.1633 42.2449 13.4388 38.0816 8.63265Z" fill="#D37400"/>
</svg>
